<?xml version="1.0" standalone="no"?>
<!DOCTYPE svg PUBLIC "-//W3C//DTD SVG 20010904//EN"
 "http://www.w3.org/TR/2001/REC-SVG-20010904/DTD/svg10.dtd">
<svg version="1.0" xmlns="http://www.w3.org/2000/svg"
 width="726.000000pt" height="714.000000pt" viewBox="0 0 726.000000 714.000000"
 preserveAspectRatio="xMidYMid meet">

<g transform="translate(0.000000,714.000000) scale(0.100000,-0.100000)"
fill="#000000" stroke="none">
<path d="M3345 7133 c-528 -46 -1034 -202 -1475 -456 -619 -355 -1117 -880
-1429 -1504 -188 -376 -301 -752 -357 -1188 -28 -212 -26 -633 4 -855 75 -566
255 -1055 560 -1520 178 -270 411 -536 653 -744 136 -116 126 -109 249 -197
457 -327 945 -530 1497 -623 368 -62 791 -62 1167 -1 146 24 310 61 411 92
389 119 659 245 980 458 489 324 872 741 1164 1269 230 415 378 904 420 1383
22 250 6 746 -29 883 -4 19 -14 69 -20 110 -21 129 -82 363 -135 510 -351 981
-1096 1758 -2053 2140 -319 127 -667 210 -1004 240 -104 9 -510 11 -603 3z
m387 -1403 c385 -37 625 -219 741 -560 54 -160 70 -268 71 -490 0 -190 -2
-213 -26 -310 -30 -119 -54 -184 -105 -285 -118 -234 -327 -417 -563 -492 -76
-25 -100 -28 -225 -28 -117 0 -153 4 -220 24 -226 65 -431 234 -557 456 -60
105 -91 186 -125 320 -26 103 -28 122 -27 315 1 184 4 218 29 335 48 225 123
372 252 495 133 126 307 199 521 220 111 10 127 10 234 0z m-750 -2269 c195
-130 404 -194 638 -194 234 1 443 64 638 194 40 27 80 49 88 49 14 0 271 -129
479 -240 39 -21 120 -63 180 -95 140 -73 171 -103 220 -213 21 -48 48 -109 61
-137 12 -27 31 -70 42 -95 11 -25 65 -146 120 -270 236 -530 242 -545 242
-597 0 -93 -70 -191 -159 -221 -44 -15 -3767 -17 -3821 -2 -85 24 -160 128
-160 224 0 45 27 119 110 301 10 22 66 148 125 280 59 132 115 258 125 280 9
22 46 104 81 183 71 162 94 191 195 243 38 20 155 80 259 134 105 55 244 127
310 162 66 34 128 63 137 63 10 0 50 -22 90 -49z"/>
</g>
</svg>
